<?xml version="1.0" encoding="UTF-8"?>
<!DOCTYPE svg
  PUBLIC '-//W3C//DTD SVG 1.1//EN'
  'http://www.w3.org/Graphics/SVG/1.1/DTD/svg11.dtd'>
<svg height="297.000mm" version="1.1" width="210.000mm" xmlns="http://www.w3.org/2000/svg">
    <!--Generated by finish_tokens.py-->
    <svg x="0.000mm" y="0.000mm">
        <svg height="25.000mm" version="1.1" width="55.000mm" xmlns="http://www.w3.org/2000/svg">
            <!--Autogenerated with python-barcode github_21nov21-->
            <g id="barcode_group">
                <rect height="100%" style="fill:white" width="100%"/>
                <rect height="25.000mm" rx="3mm" ry="3mm" style="fill:transparent; stroke:black; storke-width:3;" width="55.000mm"/>
                <circle cx="47.400mm" cy="12.500mm" r="2.200mm" style="fill:transparent; stroke:black; storke-width:3;"/>
                <text style="fill:black;font-size:10pt;text-anchor:middle;" x="25.000mm" y="5.000mm">Hartlepool Parkrun</text>
                <rect height="10.000mm" style="fill:black;" width="0.800mm" x="4.540mm" y="8.000mm"/>
                <rect height="11.000mm" style="fill:white;" width="0.400mm" x="5.340mm" y="8.000mm"/>
                <rect height="10.000mm" style="fill:black;" width="0.400mm" x="5.740mm" y="8.000mm"/>
                <rect height="11.000mm" style="fill:white;" width="0.800mm" x="6.140mm" y="8.000mm"/>
                <rect height="10.000mm" style="fill:black;" width="0.400mm" x="6.940mm" y="8.000mm"/>
                <rect height="11.000mm" style="fill:white;" width="1.600mm" x="7.340mm" y="8.000mm"/>
                <rect height="10.000mm" style="fill:black;" width="1.200mm" x="8.940mm" y="8.000mm"/>
                <rect height="11.000mm" style="fill:white;" width="0.400mm" x="10.140mm" y="8.000mm"/>
                <rect height="10.000mm" style="fill:black;" width="1.200mm" x="10.540mm" y="8.000mm"/>
                <rect height="11.000mm" style="fill:white;" width="0.400mm" x="11.740mm" y="8.000mm"/>
                <rect height="10.000mm" style="fill:black;" width="0.800mm" x="12.140mm" y="8.000mm"/>
                <rect height="11.000mm" style="fill:white;" width="0.400mm" x="12.940mm" y="8.000mm"/>
                <rect height="10.000mm" style="fill:black;" width="0.400mm" x="13.340mm" y="8.000mm"/>
                <rect height="11.000mm" style="fill:white;" width="0.400mm" x="13.740mm" y="8.000mm"/>
                <rect height="10.000mm" style="fill:black;" width="1.200mm" x="14.140mm" y="8.000mm"/>
                <rect height="11.000mm" style="fill:white;" width="0.400mm" x="15.340mm" y="8.000mm"/>
                <rect height="10.000mm" style="fill:black;" width="1.600mm" x="15.740mm" y="8.000mm"/>
                <rect height="11.000mm" style="fill:white;" width="0.400mm" x="17.340mm" y="8.000mm"/>
                <rect height="10.000mm" style="fill:black;" width="0.800mm" x="17.740mm" y="8.000mm"/>
                <rect height="11.000mm" style="fill:white;" width="0.400mm" x="18.540mm" y="8.000mm"/>
                <rect height="10.000mm" style="fill:black;" width="0.800mm" x="18.940mm" y="8.000mm"/>
                <rect height="11.000mm" style="fill:white;" width="0.800mm" x="19.740mm" y="8.000mm"/>
                <rect height="10.000mm" style="fill:black;" width="0.800mm" x="20.540mm" y="8.000mm"/>
                <rect height="11.000mm" style="fill:white;" width="0.800mm" x="21.340mm" y="8.000mm"/>
                <rect height="10.000mm" style="fill:black;" width="0.800mm" x="22.140mm" y="8.000mm"/>
                <rect height="11.000mm" style="fill:white;" width="0.800mm" x="22.940mm" y="8.000mm"/>
                <rect height="10.000mm" style="fill:black;" width="0.800mm" x="23.740mm" y="8.000mm"/>
                <rect height="11.000mm" style="fill:white;" width="0.400mm" x="24.540mm" y="8.000mm"/>
                <rect height="10.000mm" style="fill:black;" width="0.800mm" x="24.940mm" y="8.000mm"/>
                <rect height="11.000mm" style="fill:white;" width="0.800mm" x="25.740mm" y="8.000mm"/>
                <rect height="10.000mm" style="fill:black;" width="0.400mm" x="26.540mm" y="8.000mm"/>
                <rect height="11.000mm" style="fill:white;" width="0.400mm" x="26.940mm" y="8.000mm"/>
                <rect height="10.000mm" style="fill:black;" width="1.200mm" x="27.340mm" y="8.000mm"/>
                <rect height="11.000mm" style="fill:white;" width="0.400mm" x="28.540mm" y="8.000mm"/>
                <rect height="10.000mm" style="fill:black;" width="0.800mm" x="28.940mm" y="8.000mm"/>
                <rect height="11.000mm" style="fill:white;" width="1.200mm" x="29.740mm" y="8.000mm"/>
                <rect height="10.000mm" style="fill:black;" width="0.800mm" x="30.940mm" y="8.000mm"/>
                <rect height="11.000mm" style="fill:white;" width="1.200mm" x="31.740mm" y="8.000mm"/>
                <rect height="10.000mm" style="fill:black;" width="1.200mm" x="32.940mm" y="8.000mm"/>
                <rect height="11.000mm" style="fill:white;" width="0.400mm" x="34.140mm" y="8.000mm"/>
                <rect height="10.000mm" style="fill:black;" width="0.400mm" x="34.540mm" y="8.000mm"/>
                <rect height="11.000mm" style="fill:white;" width="0.400mm" x="34.940mm" y="8.000mm"/>
                <rect height="10.000mm" style="fill:black;" width="0.800mm" x="35.340mm" y="8.000mm"/>
                <text style="fill:black;font-size:10pt;text-anchor:middle;" x="20.340mm" y="23.000mm">P0001</text>
            </g>
        </svg>
    </svg>
    <svg x="60.000mm" y="0.000mm">
        <svg height="25.000mm" version="1.1" width="55.000mm" xmlns="http://www.w3.org/2000/svg">
            <!--Autogenerated with python-barcode github_21nov21-->
            <g id="barcode_group">
                <rect height="100%" style="fill:white" width="100%"/>
                <rect height="25.000mm" rx="3mm" ry="3mm" style="fill:transparent; stroke:black; storke-width:3;" width="55.000mm"/>
                <circle cx="47.400mm" cy="12.500mm" r="2.200mm" style="fill:transparent; stroke:black; storke-width:3;"/>
                <text style="fill:black;font-size:10pt;text-anchor:middle;" x="25.000mm" y="5.000mm">Hartlepool Parkrun</text>
                <rect height="10.000mm" style="fill:black;" width="0.800mm" x="4.540mm" y="8.000mm"/>
                <rect height="11.000mm" style="fill:white;" width="0.400mm" x="5.340mm" y="8.000mm"/>
                <rect height="10.000mm" style="fill:black;" width="0.400mm" x="5.740mm" y="8.000mm"/>
                <rect height="11.000mm" style="fill:white;" width="0.800mm" x="6.140mm" y="8.000mm"/>
                <rect height="10.000mm" style="fill:black;" width="0.400mm" x="6.940mm" y="8.000mm"/>
                <rect height="11.000mm" style="fill:white;" width="1.600mm" x="7.340mm" y="8.000mm"/>
                <rect height="10.000mm" style="fill:black;" width="1.200mm" x="8.940mm" y="8.000mm"/>
                <rect height="11.000mm" style="fill:white;" width="0.400mm" x="10.140mm" y="8.000mm"/>
                <rect height="10.000mm" style="fill:black;" width="1.200mm" x="10.540mm" y="8.000mm"/>
                <rect height="11.000mm" style="fill:white;" width="0.400mm" x="11.740mm" y="8.000mm"/>
                <rect height="10.000mm" style="fill:black;" width="0.800mm" x="12.140mm" y="8.000mm"/>
                <rect height="11.000mm" style="fill:white;" width="0.400mm" x="12.940mm" y="8.000mm"/>
                <rect height="10.000mm" style="fill:black;" width="0.400mm" x="13.340mm" y="8.000mm"/>
                <rect height="11.000mm" style="fill:white;" width="0.400mm" x="13.740mm" y="8.000mm"/>
                <rect height="10.000mm" style="fill:black;" width="1.200mm" x="14.140mm" y="8.000mm"/>
                <rect height="11.000mm" style="fill:white;" width="0.400mm" x="15.340mm" y="8.000mm"/>
                <rect height="10.000mm" style="fill:black;" width="1.600mm" x="15.740mm" y="8.000mm"/>
                <rect height="11.000mm" style="fill:white;" width="0.400mm" x="17.340mm" y="8.000mm"/>
                <rect height="10.000mm" style="fill:black;" width="0.800mm" x="17.740mm" y="8.000mm"/>
                <rect height="11.000mm" style="fill:white;" width="0.400mm" x="18.540mm" y="8.000mm"/>
                <rect height="10.000mm" style="fill:black;" width="0.800mm" x="18.940mm" y="8.000mm"/>
                <rect height="11.000mm" style="fill:white;" width="0.800mm" x="19.740mm" y="8.000mm"/>
                <rect height="10.000mm" style="fill:black;" width="0.800mm" x="20.540mm" y="8.000mm"/>
                <rect height="11.000mm" style="fill:white;" width="0.800mm" x="21.340mm" y="8.000mm"/>
                <rect height="10.000mm" style="fill:black;" width="0.800mm" x="22.140mm" y="8.000mm"/>
                <rect height="11.000mm" style="fill:white;" width="0.800mm" x="22.940mm" y="8.000mm"/>
                <rect height="10.000mm" style="fill:black;" width="0.800mm" x="23.740mm" y="8.000mm"/>
                <rect height="11.000mm" style="fill:white;" width="0.800mm" x="24.540mm" y="8.000mm"/>
                <rect height="10.000mm" style="fill:black;" width="0.800mm" x="25.340mm" y="8.000mm"/>
                <rect height="11.000mm" style="fill:white;" width="0.400mm" x="26.140mm" y="8.000mm"/>
                <rect height="10.000mm" style="fill:black;" width="0.800mm" x="26.540mm" y="8.000mm"/>
                <rect height="11.000mm" style="fill:white;" width="0.400mm" x="27.340mm" y="8.000mm"/>
                <rect height="10.000mm" style="fill:black;" width="0.400mm" x="27.740mm" y="8.000mm"/>
                <rect height="11.000mm" style="fill:white;" width="1.200mm" x="28.140mm" y="8.000mm"/>
                <rect height="10.000mm" style="fill:black;" width="1.200mm" x="29.340mm" y="8.000mm"/>
                <rect height="11.000mm" style="fill:white;" width="0.400mm" x="30.540mm" y="8.000mm"/>
                <rect height="10.000mm" style="fill:black;" width="0.800mm" x="30.940mm" y="8.000mm"/>
                <rect height="11.000mm" style="fill:white;" width="1.200mm" x="31.740mm" y="8.000mm"/>
                <rect height="10.000mm" style="fill:black;" width="1.200mm" x="32.940mm" y="8.000mm"/>
                <rect height="11.000mm" style="fill:white;" width="0.400mm" x="34.140mm" y="8.000mm"/>
                <rect height="10.000mm" style="fill:black;" width="0.400mm" x="34.540mm" y="8.000mm"/>
                <rect height="11.000mm" style="fill:white;" width="0.400mm" x="34.940mm" y="8.000mm"/>
                <rect height="10.000mm" style="fill:black;" width="0.800mm" x="35.340mm" y="8.000mm"/>
                <text style="fill:black;font-size:10pt;text-anchor:middle;" x="20.340mm" y="23.000mm">P0002</text>
            </g>
        </svg>
    </svg>
    <svg x="120.000mm" y="0.000mm">
        <svg height="25.000mm" version="1.1" width="55.000mm" xmlns="http://www.w3.org/2000/svg">
            <!--Autogenerated with python-barcode github_21nov21-->
            <g id="barcode_group">
                <rect height="100%" style="fill:white" width="100%"/>
                <rect height="25.000mm" rx="3mm" ry="3mm" style="fill:transparent; stroke:black; storke-width:3;" width="55.000mm"/>
                <circle cx="47.400mm" cy="12.500mm" r="2.200mm" style="fill:transparent; stroke:black; storke-width:3;"/>
                <text style="fill:black;font-size:10pt;text-anchor:middle;" x="25.000mm" y="5.000mm">Hartlepool Parkrun</text>
                <rect height="10.000mm" style="fill:black;" width="0.800mm" x="4.540mm" y="8.000mm"/>
                <rect height="11.000mm" style="fill:white;" width="0.400mm" x="5.340mm" y="8.000mm"/>
                <rect height="10.000mm" style="fill:black;" width="0.400mm" x="5.740mm" y="8.000mm"/>
                <rect height="11.000mm" style="fill:white;" width="0.800mm" x="6.140mm" y="8.000mm"/>
                <rect height="10.000mm" style="fill:black;" width="0.400mm" x="6.940mm" y="8.000mm"/>
                <rect height="11.000mm" style="fill:white;" width="1.600mm" x="7.340mm" y="8.000mm"/>
                <rect height="10.000mm" style="fill:black;" width="1.200mm" x="8.940mm" y="8.000mm"/>
                <rect height="11.000mm" style="fill:white;" width="0.400mm" x="10.140mm" y="8.000mm"/>
                <rect height="10.000mm" style="fill:black;" width="1.200mm" x="10.540mm" y="8.000mm"/>
                <rect height="11.000mm" style="fill:white;" width="0.400mm" x="11.740mm" y="8.000mm"/>
                <rect height="10.000mm" style="fill:black;" width="0.800mm" x="12.140mm" y="8.000mm"/>
                <rect height="11.000mm" style="fill:white;" width="0.400mm" x="12.940mm" y="8.000mm"/>
                <rect height="10.000mm" style="fill:black;" width="0.400mm" x="13.340mm" y="8.000mm"/>
                <rect height="11.000mm" style="fill:white;" width="0.400mm" x="13.740mm" y="8.000mm"/>
                <rect height="10.000mm" style="fill:black;" width="1.200mm" x="14.140mm" y="8.000mm"/>
                <rect height="11.000mm" style="fill:white;" width="0.400mm" x="15.340mm" y="8.000mm"/>
                <rect height="10.000mm" style="fill:black;" width="1.600mm" x="15.740mm" y="8.000mm"/>
                <rect height="11.000mm" style="fill:white;" width="0.400mm" x="17.340mm" y="8.000mm"/>
                <rect height="10.000mm" style="fill:black;" width="0.800mm" x="17.740mm" y="8.000mm"/>
                <rect height="11.000mm" style="fill:white;" width="0.400mm" x="18.540mm" y="8.000mm"/>
                <rect height="10.000mm" style="fill:black;" width="0.800mm" x="18.940mm" y="8.000mm"/>
                <rect height="11.000mm" style="fill:white;" width="0.800mm" x="19.740mm" y="8.000mm"/>
                <rect height="10.000mm" style="fill:black;" width="0.800mm" x="20.540mm" y="8.000mm"/>
                <rect height="11.000mm" style="fill:white;" width="0.800mm" x="21.340mm" y="8.000mm"/>
                <rect height="10.000mm" style="fill:black;" width="0.800mm" x="22.140mm" y="8.000mm"/>
                <rect height="11.000mm" style="fill:white;" width="0.800mm" x="22.940mm" y="8.000mm"/>
                <rect height="10.000mm" style="fill:black;" width="0.400mm" x="23.740mm" y="8.000mm"/>
                <rect height="11.000mm" style="fill:white;" width="0.800mm" x="24.140mm" y="8.000mm"/>
                <rect height="10.000mm" style="fill:black;" width="0.400mm" x="24.940mm" y="8.000mm"/>
                <rect height="11.000mm" style="fill:white;" width="1.200mm" x="25.340mm" y="8.000mm"/>
                <rect height="10.000mm" style="fill:black;" width="1.600mm" x="26.540mm" y="8.000mm"/>
                <rect height="11.000mm" style="fill:white;" width="0.400mm" x="28.140mm" y="8.000mm"/>
                <rect height="10.000mm" style="fill:black;" width="1.200mm" x="28.540mm" y="8.000mm"/>
                <rect height="11.000mm" style="fill:white;" width="0.400mm" x="29.740mm" y="8.000mm"/>
                <rect height="10.000mm" style="fill:black;" width="0.400mm" x="30.140mm" y="8.000mm"/>
                <rect height="11.000mm" style="fill:white;" width="0.400mm" x="30.540mm" y="8.000mm"/>
                <rect height="10.000mm" style="fill:black;" width="0.800mm" x="30.940mm" y="8.000mm"/>
                <rect height="11.000mm" style="fill:white;" width="1.200mm" x="31.740mm" y="8.000mm"/>
                <rect height="10.000mm" style="fill:black;" width="1.200mm" x="32.940mm" y="8.000mm"/>
                <rect height="11.000mm" style="fill:white;" width="0.400mm" x="34.140mm" y="8.000mm"/>
                <rect height="10.000mm" style="fill:black;" width="0.400mm" x="34.540mm" y="8.000mm"/>
                <rect height="11.000mm" style="fill:white;" width="0.400mm" x="34.940mm" y="8.000mm"/>
                <rect height="10.000mm" style="fill:black;" width="0.800mm" x="35.340mm" y="8.000mm"/>
                <text style="fill:black;font-size:10pt;text-anchor:middle;" x="20.340mm" y="23.000mm">P0009</text>
            </g>
        </svg>
    </svg>
</svg>
